<svg width="21" height="20" viewBox="0 0 21 20" fill="none" xmlns="http://www.w3.org/2000/svg">
<path d="M17.388 11.0616H1.67269C1.39809 11.0616 1.17103 10.9718 0.991482 10.7923C0.811939 10.6128 0.722168 10.3857 0.722168 10.1111C0.722168 9.83649 0.811939 9.60943 0.991482 9.42988C1.17103 9.25034 1.39809 9.16057 1.67269 9.16057H17.388L10.1957 1.96829C10.0056 1.77819 9.91054 1.5564 9.91054 1.30293C9.91054 1.04946 10.0056 0.82767 10.1957 0.637566C10.3858 0.447461 10.6076 0.352409 10.8611 0.352409C11.1145 0.352409 11.3363 0.447461 11.5264 0.637566L20.3346 9.44572C20.4402 9.55134 20.5141 9.65695 20.5564 9.76256C20.5986 9.86818 20.6197 9.98435 20.6197 10.1111C20.6197 10.2378 20.5986 10.354 20.5564 10.4596C20.5141 10.5652 20.4402 10.6708 20.3346 10.7765L11.5264 19.5846C11.3363 19.7747 11.1145 19.8698 10.8611 19.8698C10.6076 19.8698 10.3858 19.7747 10.1957 19.5846C10.0056 19.3945 9.91054 19.1727 9.91054 18.9192C9.91054 18.6658 10.0056 18.444 10.1957 18.2539L17.388 11.0616Z" fill="white"/>
</svg>
